<?xml version="1.0" standalone="no"?>
<!DOCTYPE svg PUBLIC "-//W3C//DTD SVG 20010904//EN"
 "http://www.w3.org/TR/2001/REC-SVG-20010904/DTD/svg10.dtd">
<svg version="1.0" xmlns="http://www.w3.org/2000/svg"
 width="400.000000pt" height="300.000000pt" viewBox="0 0 400.000000 300.000000"
 preserveAspectRatio="xMidYMid meet">

<g transform="translate(0.000000,300.000000) scale(0.100000,-0.100000)"
fill="#000000" stroke="none">
<path d="M1618 2056 c-27 -14 -388 -305 -388 -312 0 -2 323 -4 719 -4 l718 0
33 23 c58 39 75 71 75 142 0 68 -15 99 -67 138 -35 26 -114 33 -158 14 -19 -8
-79 -52 -132 -96 -94 -78 -98 -80 -98 -54 -1 44 -34 108 -70 133 -43 30 -125
38 -167 17 -16 -9 -72 -50 -123 -92 -82 -67 -95 -74 -101 -58 -4 10 -8 27 -8
37 -1 31 -42 83 -82 105 -43 25 -112 27 -151 7z"/>
<path d="M1633 1657 c-18 -7 -109 -75 -204 -152 -94 -77 -180 -148 -192 -157
-21 -17 12 -18 703 -15 l725 2 38 24 c131 81 86 282 -69 307 -56 9 -92 -9
-209 -104 -90 -74 -100 -80 -103 -59 -16 116 -118 190 -218 157 -20 -7 -83
-50 -139 -96 -98 -79 -124 -97 -110 -74 9 15 -13 84 -37 115 -24 31 -91 65
-128 64 -14 0 -40 -5 -57 -12z"/>
<path d="M1618 1246 c-15 -8 -109 -81 -209 -163 l-183 -148 700 -3 c384 -1
714 0 732 3 43 8 98 57 113 102 35 108 -32 211 -144 221 -67 5 -84 -3 -209
-107 -94 -78 -98 -80 -98 -54 -1 44 -34 108 -70 133 -43 30 -125 38 -167 17
-16 -9 -72 -50 -124 -92 l-94 -76 -11 43 c-15 60 -37 90 -83 116 -45 25 -113
29 -153 8z"/>
</g>
</svg>
